# xmcd CD database file
# Copyright (C) 1995-1998 Ti Kan
#
# Track frame offsets:
#	150
#	11752
#	21697
#	35217
#	50360
#	68357
#	85620
#	101947
#	117772
#	131772
#
# Disc length: 1995 seconds
#
# Revision: 1
# Processed by: cddbd v1.4b41PL1 Copyright (c) Steve Scherf et al.
# Submitted via: CDex 1.30
#
DISCID=8607c90a
DTITLE=Dave Evans - Call Me Long Gone
DYEAR=1999
DGENRE=Country
TTITLE0=Whitehouse Blues
TTITLE1=There Ain't Nobody Gonna Miss Me When I'm Gone
TTITLE2=Whiskey
TTITLE3=Is It Too Late Now
TTITLE4=Poor Rebel Soldier
TTITLE5=Soldiers Return
TTITLE6=You Call Me Long Gone
TTITLE7=Sweeter Than The Flowers
TTITLE8=Legend Of The Johnson Boys
TTITLE9=Little Joe
EXTD=\n\nYEAR: 1999  ID3G:   2
EXTT0=
EXTT1=
EXTT2=
EXTT3=
EXTT4=
EXTT5=
EXTT6=
EXTT7=
EXTT8=
EXTT9=
PLAYORDER=
